<svg width="140" height="24" viewBox="0 0 140 24" fill="none" xmlns="http://www.w3.org/2000/svg">
<path d="M124.316 23.4987H120.921V2.50653H131.859C136.637 2.50653 139.591 4.7624 139.591 8.67885C139.591 12.1567 137.297 14.2872 133.337 14.5065V14.7258C134.971 15.1645 135.725 16.1044 136.48 17.4204L140 23.4987H136.103L132.739 17.7024C131.796 16.0418 130.822 15.3525 128.182 15.3525H124.316V23.4987ZM124.316 5.54569V12.752H131.828C134.657 12.752 136.071 11.7807 136.071 9.14883C136.071 6.57964 134.657 5.54569 131.828 5.54569H124.316Z" fill="black"/>
<path d="M100.177 23.4987H96.4051L105.803 2.50653H110.58L119.978 23.4987H116.144L113.724 18.047H102.597L100.177 23.4987ZM106.809 8.61619L103.949 15.0078H112.372L109.512 8.61619L108.286 5.63969H108.035L106.809 8.61619Z" fill="black"/>
<path d="M95.9613 23.4987H79.1143V2.50653H95.9613V5.54569H82.5088V11.436H95.4899V14.4439H82.5088V20.4595H95.9613V23.4987Z" fill="black"/>
<path d="M55.8995 23.4987H50.9019L45.3386 2.50653H49.1104L52.5363 15.7911L53.4793 20.2402H53.7307L54.8622 15.7911L59.1054 2.50653H64.0401L68.5662 15.7911L69.7606 20.2402H70.012L70.8921 15.7911L74.0352 2.50653H77.7441L72.4637 23.4987H67.4661L63.2229 11.2794L61.6828 5.89034H61.3999L59.8912 11.2794L55.8995 23.4987Z" fill="black"/>
<path d="M28.7764 19.7702C27.8021 22.6841 26.0105 24 23.1503 24C21.3273 24 19.9443 23.06 19.1271 21.7128L19.4414 21.2428C19.9129 21.8694 20.8244 22.4334 21.453 22.4334C22.2388 22.4334 22.7731 21.8068 23.2445 20.4595C24.6904 16.4177 26.3248 10.4647 27.4249 4.22975L24.2503 2.53785L24.3132 2.16187C26.2305 1.94255 30.2537 1.72323 32.4539 1.69189L32.9882 1.94255C32.9253 3.16448 32.2653 5.48302 31.2595 7.73889L31.6995 8.02088C33.1453 4.48041 35.4084 1.69189 39.1487 1.69189C42.5432 1.69189 44.492 3.79111 44.492 6.51696C44.492 12.564 36.8542 16.3551 30.568 16.6997L30.4423 16.1984C34.4969 15.5091 39.4316 10.8407 39.4316 5.92166C39.4316 4.10443 38.8029 3.03915 37.2943 3.03915C35.3141 3.03915 33.1453 5.92166 31.6681 10.2454C30.8509 13.4726 29.7194 17.0444 28.7764 19.7702Z" fill="black"/>
<path d="M23.8562 1.97389C23.8562 6.45431 18.3243 11.9373 12.8553 11.9373C10.1522 11.9373 8.26638 10.2768 8.26638 7.80157C8.26638 3.69713 11.4095 1.22193 14.7412 1.22193C18.1672 1.22193 20.0845 3.75979 20.7445 7.11227C21.7817 5.98434 22.4732 4.66841 22.4732 3.44647C22.4732 1.8799 22.0961 1.03394 21.216 0.125327L21.3417 0C22.0646 0.0939954 22.7561 0.156657 23.3533 0.469975C23.699 0.657964 23.8562 1.25326 23.8562 1.97389ZM9.3036 7.64491C9.3036 9.83812 10.7809 11.154 13.2325 11.154C13.924 11.154 14.6155 10.9974 15.3384 10.7467C15.3384 6.5483 14.6783 2.81984 12.4467 2.81984C10.9066 2.81984 9.3036 4.73107 9.3036 7.64491ZM15.3069 12.1567C17.6014 11.624 19.8645 10.2454 20.996 8.58486V9.49347C20.996 17.3577 13.2954 24 6.85198 24C3.01739 24 0 21.9321 0 17.1697C0 12.9713 2.8288 9.30548 5.62617 7.51958C6.28622 8.11488 6.9777 9.08616 7.4806 9.99478C6.41194 11.6867 5.81475 14.4752 5.81475 16.8877C5.81475 19.9582 6.78912 22.8721 9.11502 22.8721C12.101 22.8721 15.1498 17.765 15.3069 12.1567Z" fill="black"/>
</svg>
