<svg width="32" height="32" viewBox="0 0 32 32" fill="none" xmlns="http://www.w3.org/2000/svg">
<path fill-rule="evenodd" clip-rule="evenodd" d="M5 0C2.23859 0 0 2.23859 0 5V27C0 29.7614 2.23859 32 5 32H27C29.7614 32 32 29.7614 32 27V5C32 2.23859 29.7614 0 27 0H5ZM16.9328 15.9373C22.4348 15.9373 28 10.4543 28 5.97388C28 5.25323 27.8419 4.65796 27.4941 4.46997C26.95 4.18622 26.328 4.10803 25.6752 4.026C25.6072 4.01746 25.5389 4.00885 25.4704 4L25.3439 4.12531C26.2292 5.03394 26.6087 5.87988 26.6087 7.44647C26.6087 8.6684 25.9131 9.98431 24.8696 11.1122C24.2055 7.75977 22.2767 5.22192 18.83 5.22192C15.4783 5.22192 12.3162 7.69714 12.3162 11.8016C12.3162 14.2767 14.2134 15.9373 16.9328 15.9373ZM17.3123 15.1541C14.8459 15.1541 13.3597 13.8381 13.3597 11.6449C13.3597 8.73108 14.9723 6.81982 16.5217 6.81982C18.7668 6.81982 19.4308 10.5483 19.4308 14.7468C18.7036 14.9974 18.0079 15.1541 17.3123 15.1541ZM25.1225 12.5848C23.9842 14.2454 21.7075 15.624 19.3992 16.1567C19.2411 21.765 16.1739 26.8721 13.17 26.8721C10.83 26.8721 9.84979 23.9583 9.84979 20.8878C9.84979 18.4752 10.4506 15.6867 11.5257 13.9948C11.0198 13.0862 10.3241 12.1149 9.66006 11.5196C6.84586 13.3055 4 16.9713 4 21.1697C4 25.9321 7.03558 28 10.8933 28C17.3755 28 25.1225 21.3577 25.1225 13.4935V12.5848Z" fill="#4F46E5"/>
</svg>
